<svg width="405" height="142" viewBox="0 0 405 142" fill="none" xmlns="http://www.w3.org/2000/svg">
<path d="M10.1766 9.02891C14.9371 8.72215 21.5997 8.94753 26.4755 8.90493C30.6917 8.86806 38.4402 8.70562 42.3929 9.26287C44.2696 12.5803 50.9798 20.1655 53.8292 23.7926C67.0695 40.3828 80.4026 56.8986 93.8279 73.3394C97.9084 78.4286 106.72 88.4842 109.441 93.3376L109.412 112.898C109.406 116.265 109.545 121.661 109.142 124.856C106.843 126.326 102.162 118.981 100.759 117.251C96.5785 112.158 92.4445 107.026 88.3577 101.857L70.685 80.2819C63.3377 71.2172 56.0378 61.8187 48.5688 52.8643C39.3346 41.9254 29.7346 28.6898 20.208 18.2137C20.6432 38.4583 19.9502 59.2598 20.1502 79.5673C20.2115 85.7946 19.673 98.7721 20.4906 104.351C21.1229 108.665 30.9333 121.334 34.3622 124.888C25.5673 125.203 8.52912 125.321 0 124.723C3.01882 120.622 13.828 108.108 14.1634 103.735C14.9765 93.1322 14.623 76.5999 14.6176 65.7462L14.6319 32.2673C14.6443 25.6344 14.8284 17.9792 14.5124 11.4458C13.1351 10.6673 10.923 10.1278 10.1766 9.02891Z" fill="#4B1911"/>
<path d="M327.834 98.9238C329.89 98.8666 333.826 98.2035 335.587 98.455C335.933 99.2201 335.981 99.4427 336.172 100.267C337.462 101.016 345.227 99.0299 347.043 98.5605C347.237 104.25 346.71 120.272 347.402 124.614C346.862 125.381 346.747 125.607 346.032 126.188L340.285 126.206C340.46 125.419 340.775 123.948 340.772 122.955C340.756 117.147 343.2 107.669 339.107 102.893C338.461 102.14 337.189 101.734 336.306 101.77C333.807 105.193 330.504 102.236 327.583 100.501C332.272 106.72 333.279 112.558 325.215 116.589C321.645 118.373 318.517 118.05 314.646 118.052C314.534 119.467 314.519 121.078 314.475 122.512C320.066 123.383 328.365 124.135 333.133 126.853C333.374 127.279 333.613 127.71 333.842 128.145C336.223 132.697 334.491 137.268 329.913 139.408C324.497 141.939 318.146 142.598 312.393 140.821C309.535 139.938 305.758 137.394 307.09 133.908C308.222 131.076 310.984 130.092 313.574 128.898C306.83 124.245 309.134 121.551 314.01 117.063C311.737 115.21 307.815 111.261 308.288 108.102C308.759 104.975 311.735 99.6179 315.25 99.3047C319.334 98.9407 323.699 99.0388 327.834 98.9238ZM325.632 130.235C323.54 129.571 317.662 129.071 315.456 129.28C311.222 132.549 310.772 133.719 313.254 138.558C317.666 140.231 321.49 140.258 326.016 139.063C331.699 136.077 332.355 132.371 325.632 130.235ZM319.554 100.124C313.428 101.746 314.551 107.213 314.964 112.412C316.741 115.203 317.189 115.916 320.608 116.186C322.093 115.836 322.834 115.703 323.708 114.28C325.831 110.826 325.31 102.472 321.238 100.541C320.711 100.294 320.139 100.152 319.554 100.124Z" fill="#4B1911"/>
<path d="M179.405 47.7892C178.075 47.0953 174.781 45.9235 174.226 45.4118C175.312 44.3608 184.369 44.6622 186.197 44.6937C186.788 44.7038 187.38 44.7191 187.971 44.7398C185.752 45.9131 184.919 46.3835 182.452 47.0638C181.284 53.2014 181.727 79.5878 182.43 86.1434C181.624 86.5856 181.75 86.4247 180.664 86.3678C178.959 86.4047 175.421 86.5465 173.968 86.0566C174.679 85.2864 176.447 85.2629 177.574 85.1322C177.372 83.6376 155.557 54.6955 152.633 50.2289C151.75 58.6216 152.196 74.7197 152.686 83.6519C155.106 84.3131 156.559 84.7832 158.892 85.8932C156.407 85.8898 149.462 86.1135 147.534 85.1484L147.424 84.6481C148.207 83.8893 148.933 83.8973 150.034 83.7139L150.052 60.8026C150.052 57.3021 150.204 51.4324 149.905 48.1128C148.453 47.491 146.428 46.8607 145.712 45.5491C146.839 44.7048 153.834 44.9645 156.217 44.7779C164.368 54.9129 170.976 65.3086 179.448 75.4076C179.558 69.7474 179.6 64.0863 179.573 58.4252C179.576 55.3945 179.698 50.7175 179.405 47.7892Z" fill="#4B1911"/>
<path d="M180.664 86.3679C178.959 86.4048 175.421 86.5466 173.968 86.0567C174.679 85.2865 176.447 85.263 177.574 85.1323L177.861 85.858C178.67 85.9791 179.9 86.153 180.664 86.3679Z" fill="#4B1911"/>
<path d="M174.203 89.9657C175.384 89.7788 175.966 89.638 177.182 89.7817L177.274 90.2407C174.272 93.6144 168.207 98.3651 164.379 102.386C169.407 108.253 174.617 113.939 179.881 119.594C183.117 123.069 184.986 124.503 189.43 126.145C186.855 126.259 183.731 126.176 181.115 126.174C177.267 126.223 172.596 126.284 168.824 125.931C170.469 125.384 173.153 124.94 174.923 124.593C174.037 123.123 171.506 119.853 170.255 118.617C167.481 115.875 160.746 105.885 156.968 106.313C156.308 107.735 156.339 123.471 157.07 124.55C157.949 124.793 158.073 124.789 158.792 125.315L158.596 125.66C156.542 126.365 147.672 126.146 145.076 126.142C146.368 125.472 147.917 125.043 149.318 124.602C149.57 113.302 149.364 101.223 149.392 89.8542L155.024 89.7874L156.121 89.7861C157.639 91.7373 155.26 103.024 157.428 104.244C161.009 104.05 171.092 93.0746 174.203 89.9657Z" fill="#4B1911"/>
<path d="M386.379 98.9091C389.695 98.6147 392.082 98.6308 395.153 99.9316C395.744 100.611 397.035 102.467 397.191 103.315C398.326 109.517 397.951 116.933 397.989 123.232C400.074 123.228 402.302 123.353 404.397 123.433C400.067 126.409 393.818 130.298 391.663 122.464C388.573 126.435 385.079 128.595 380.26 126.044C379.014 125.306 377.511 124.302 377.066 122.844C374.456 114.269 385.604 111.704 391.516 109.564C391.713 104.899 391.767 100.665 385.064 101.376C383.007 101.595 382.768 104.503 381.891 106.079C380.791 106.989 378.198 106.937 377.212 106.011C376.834 101.275 382.883 99.8252 386.379 98.9091ZM391.131 111.622C386.112 113.053 378.885 116.716 384.279 122.67C388.137 124.334 389.158 123.065 391.586 120.101C391.602 118.446 391.907 112.556 391.131 111.622Z" fill="#4B1911"/>
<path d="M199.557 58.4119C203.505 57.9154 205.581 58.9427 208.467 61.2537C209.491 67.5709 208.617 76.4139 209.787 83.0916C211.389 83.1678 213.703 82.9914 215.352 82.9148C214.453 84.109 212.927 85.331 211.55 85.9168C208.893 86.8186 208.397 86.7433 205.59 86.1912L203.48 82.616C200.028 85.6219 195.552 88.1528 191.029 85.4431C189.621 84.6173 188.61 83.2494 188.238 81.659C186.483 74.0855 197.962 70.5581 203.493 69.3406C203.366 65.2864 203.794 61.2293 198.864 60.6472C197.488 60.4852 196.375 60.3973 195.498 61.6394C194.261 63.3882 192.818 67.3647 190.31 66.947C189.802 66.5156 189.344 65.4336 189.312 64.7957C189.261 60.4102 196.235 58.8296 199.557 58.4119ZM202.533 71.5486C196.706 72.7422 190.66 76.8295 196.445 82.6638C199.423 83.8899 201.172 82.2299 203.194 80.2918C203.27 78.4512 203.721 72.8211 202.952 71.5945L202.533 71.5486Z" fill="#4B1911"/>
<path d="M211.188 123.739C212.317 123.538 213.553 123.176 214.583 123.602L214.86 124.081C214.386 125.052 213.486 125.459 212.539 126.065C212.294 124.977 211.878 124.587 211.188 123.739Z" fill="#4B1911"/>
<path d="M189.643 105.855C188.915 99.8854 202.757 96.7534 207.043 100.091C212.437 104.295 206.703 120.6 211.188 123.738C212.316 123.537 213.553 123.176 214.583 123.602L214.86 124.08C214.386 125.051 213.486 125.459 212.539 126.065C210.546 127.137 208.842 127.087 206.624 127.104C204.78 125.207 205.297 124.977 203.988 123.154L203.486 123.157C201.321 125.922 199.125 126.437 195.829 127.288C195.002 127.106 194.189 126.866 193.397 126.572C191.9 126.007 189.408 124.525 188.934 122.859C186.443 114.118 197.659 111.664 203.788 109.225C203.807 107.633 203.715 105.898 203.668 104.295C202.6 102.684 200.794 100.82 198.62 100.784C195.196 100.727 193.314 109.653 189.643 105.855ZM203.324 111.608C198.438 113.023 190.631 116.942 196.464 122.703C204.506 125.775 203.899 117.006 203.75 112.175C203.657 112.04 203.438 111.687 203.324 111.608Z" fill="#4B1911"/>
<path d="M109.39 0.0315334C125.98 -0.892228 122.036 18.7232 114.839 26.9109C111.71 30.4705 110.301 31.2652 106.267 33.4602C105.001 34.0861 103.528 34.6665 102.212 35.2184C102.886 34.2396 104.383 32.7313 105.246 31.7691C109.166 27.3985 109.246 24.5567 109.668 19.0793C105.951 17.8611 103.315 16.1592 102.089 12.2168C101.328 9.81304 101.56 7.20451 102.736 4.97362C104.192 2.23826 106.523 0.874553 109.39 0.0315334Z" fill="#4B1911"/>
<path d="M224.882 63.1193C246.733 48.3343 243.563 69.0226 243.773 83.8381C244.905 84.1108 246.237 84.2892 247.044 85.0823C246.322 86.1624 238.865 85.9164 237.298 85.9358C236.567 85.4412 236.805 84.8547 236.844 84.0864C237.807 82.7875 237.479 68.0121 237.308 65.6105C236.141 64.5361 235.299 63.7112 233.976 62.8383C229.011 62.6723 229.399 63.3211 224.993 64.5767C225.165 71.0135 225.26 77.4522 225.283 83.8909C226.573 84.0832 227.746 84.086 228.611 85.0178L228.614 85.5505C226.802 86.4845 217.778 85.972 215.003 86.0636C215.508 85.4873 216.026 85.452 216.764 84.6655C217.724 84.32 218.254 84.1639 219.129 83.5971C219.682 80.7359 219.189 67.9189 219.221 64.1247C217.384 63.2178 216.389 62.4689 214.713 61.437C217.584 60.3801 221.729 58.7713 224.634 58.1695L224.882 63.1193Z" fill="#4B1911"/>
<path d="M250.391 98.7635C250.776 99.2308 250.404 117.205 250.566 119.672C251.3 120.501 252.171 121.387 252.937 122.203C255.423 122.444 257.276 122.412 259.765 122.381L262.019 120.472C262.114 114.944 262.391 107.528 262.009 102.145C260.096 101.375 258.163 100.411 256.297 99.5207C260.213 99.4031 264.123 99.1126 268.014 98.6494L268.043 115.533L268.106 122.605C269.568 123.221 271.711 124.416 273.233 125.161C269.46 125.971 266.142 126.468 262.318 126.937L262.079 122.504C261.971 122.621 261.866 122.737 261.755 122.852C258.557 126.223 251.45 129.228 247.368 125.282C244.072 122.096 245.08 115.608 245.006 111.368C244.956 108.398 245.029 105.207 244.959 102.126C243.627 101.78 241.402 101.469 240.868 100.154C241.945 99.008 248.468 98.9063 250.391 98.7635Z" fill="#4B1911"/>
<path d="M283.529 104.113C286.546 100.96 288.901 98.7999 293.406 98.5011C302.821 97.8768 301.972 106.69 301.959 113.343C301.953 117.031 301.972 120.928 302.134 124.629C304.054 124.933 305.761 125.384 307.637 125.857C304.728 126.418 295.205 126.21 291.873 126.206C293.352 125.224 294.407 124.942 296.066 124.388C296.117 119.157 296.556 112.447 296.139 107.321C295.685 101.68 288.24 103.575 284.467 104.444C283.936 109.165 283.815 119.521 284.305 124.5C284.327 124.748 284.801 124.895 285.115 125.056C286.006 125.153 287.137 125.017 287.56 125.887C285.449 126.58 274.238 126.169 271.603 125.855C274.025 125.247 275.246 125.071 277.715 124.792C278.021 118.436 277.906 111.414 277.922 105.003C279.642 104.816 281.791 104.4 283.529 104.113Z" fill="#4B1911"/>
<path d="M285.115 125.056C286.005 125.153 287.137 125.017 287.56 125.887C286.381 125.802 285.204 125.728 284.025 125.665L283.965 125.428L285.115 125.056Z" fill="#4B1911"/>
<path d="M289.315 87.0512C285.554 78.957 281.387 69.557 277.003 61.7126C276.463 60.7434 273.764 60.4818 273.516 59.0383C275.096 58.7347 286.737 59.1718 288.806 59.3342C287.277 59.9163 285.354 60.4404 283.765 60.9198C283.882 61.328 284.362 62.8014 284.521 63.1014C285.866 65.6213 291.05 79.0581 292.837 79.8496L292.929 80.9527C293.231 81.1199 293.444 81.2775 293.765 81.3545C292.665 85.752 287.846 97.8178 284.203 100.503C281.476 102.51 274.928 100.426 276.876 96.093C278.704 94.8323 281.794 95.915 284.804 96.0488C287.439 93.5452 288.256 90.4265 289.315 87.0512Z" fill="#4B1911"/>
<path d="M262.019 58.2514C265.239 57.9053 270.325 57.5543 272.239 60.9242C272.976 62.2173 272.496 64.22 271.024 64.8182C268.529 65.8332 266.272 62.3829 264.314 61.2863C263.399 60.7722 262.626 60.4604 261.682 60.1082C256.313 62.3019 255.757 65.2289 255.792 70.7219C255.84 78.2198 260.29 84.3084 268.488 82.1624C270.239 81.2269 271.972 80.2586 273.685 79.2586C269.87 85.5065 263.119 88.9063 256.25 85.08C253.233 83.3904 251.037 80.5476 250.159 77.2048C247.769 68.1242 253.217 60.5268 262.019 58.2514Z" fill="#4B1911"/>
<path d="M232.438 98.3396C242.079 97.5655 239.72 111.871 231.116 102.049C230.763 101.648 229.269 100.741 228.77 100.444C215.81 103.688 221.627 129.352 237.27 121.471C237.39 121.437 237.718 121.505 237.867 121.525C237.842 122.184 237.721 122.293 237.292 122.834C235.353 125.258 232.511 126.79 229.421 127.08C216.948 128.309 211.872 111.774 219.981 103.544C224.129 99.3339 226.796 98.7109 232.438 98.3396Z" fill="#4B1911"/>
<path d="M362.279 98.2856L362.819 98.5415C363.22 99.9412 363.251 102.519 363.328 104.056C365.515 101.549 372.53 95.6876 375.168 100.453C375.585 101.194 375.655 102.08 375.362 102.878C373.716 107.367 368.309 102.961 364.418 104.959C362.724 107.047 363.509 115.968 363.534 119.029L363.553 124.759C364.574 124.9 365.966 124.999 366.608 125.754C365.391 126.526 358.998 126.157 357.151 126.112C356.719 119.205 357.673 111.742 356.814 104.896C356.722 104.149 355.537 101.681 355.152 100.874C357.549 100.039 359.926 99.2323 362.279 98.2856Z" fill="#4B1911"/>
<path d="M343.051 83.295C348.817 83.0013 349.399 90.0579 345.374 91.5835C341.261 91.5415 338.845 89.6644 340.616 84.9426C341.054 83.7645 341.919 83.6701 343.051 83.295Z" fill="#4B1911"/>
<path d="M299.13 59.1237C300.748 59.0423 303.008 58.8062 304.518 59.1975L304.56 59.6072C303.485 60.3663 302.846 60.517 301.603 60.9251C299.01 67.5625 296.4 74.8509 293.765 81.3541C293.444 81.2772 293.231 81.1195 292.929 80.9523L292.837 79.8492C294.477 74.1608 296.966 68.6293 298.628 62.93C299.035 61.5355 299.124 61.5145 298.511 60.3021C297.462 60.3568 297.322 60.3053 296.327 59.9496L296.254 59.5675C297.118 58.9088 297.986 59.0932 299.13 59.1237Z" fill="#4B1911"/>
<path d="M298.511 60.3023C297.462 60.357 297.322 60.3055 296.327 59.9498L296.254 59.5677C297.118 58.909 297.986 59.0934 299.13 59.1239C298.511 59.8204 298.504 59.5988 298.511 60.3023Z" fill="#4B1911"/>
<path d="M237.298 85.9354C235.798 86.1544 235.108 86.5101 234.008 85.3905L234.132 84.7932C235.302 83.9941 235.242 84.2341 236.844 84.0859C236.805 84.8543 236.567 85.4407 237.298 85.9354Z" fill="#4B1911"/>
<path d="M347.402 124.614C348.823 124.659 350.813 125.588 352.174 126.178L346.032 126.188C346.748 125.607 346.862 125.38 347.402 124.614Z" fill="#4B1911"/>
</svg>
